<?xml version="1.0" ?><!DOCTYPE svg  PUBLIC '-//W3C//DTD SVG 1.1//EN'  'http://www.w3.org/Graphics/SVG/1.1/DTD/svg11.dtd'><svg enable-background="new 0 0 695.7 695.7" id="Capa_1" version="1.1" viewBox="0 0 695.7 695.7" xml:space="preserve" xmlns="http://www.w3.org/2000/svg" xmlns:xlink="http://www.w3.org/1999/xlink"><g><g><path d="M594.9,217.9c0,1,0.1,2.7,0.1,4.4c0,136.5-110.7,246.9-247.2,246.9S100.7,358.9,100.7,222.4     c0-1.7,0-3.5,0.1-4.5H90.4c0,1-0.1,2.7-0.1,4.4c0,142,115.5,257.2,257.5,257.2s257.5-115.1,257.5-257c0-1.7,0-3.5-0.1-4.5H594.9z     " fill="#006837"/><path d="M541.2,229.3c-0.8,10.9-11.8,14.7-36.6,21.4c-1.4,0.4-2.5,0.5-3.2,0.7c-7.8,2.3-15.9,4.3-24.4,6.3     c5.7,4.2,10.8,8.3,15.6,12.5c3.7,3.3,5,8.5,3.2,13.1c-1.7,4.6-6.2,7.7-11.1,7.7c-9.2,0-18.8-0.6-29.2-1.8     c15.1,22.7,26.1,43.4,33.9,63.6c1.7,4.4,0.6,9.3-2.7,12.6c-2.3,2.3-5.3,3.5-8.4,3.5c-1.4,0-2.9-0.3-4.3-0.8     c-18.1-6.9-36.5-16.5-56.6-29.3c4.9,21.7,7.8,40.5,9.2,58.6c0.4,5.2-2.7,10.1-7.6,12c-1.4,0.5-2.8,0.8-4.3,0.8     c-3.6,0-7.1-1.6-9.4-4.6c-12.7-16.5-23.7-34.1-32.6-49.9c-3.8,12.2-8.1,23.2-13,33.3c-2,4.1-6.1,6.7-10.7,6.7s-8.7-2.6-10.7-6.7     c-6.2-12.8-11.4-26.8-15.9-42.9c-8.7,12.7-17.1,23.4-25.8,32.9c-2.3,2.5-5.5,3.9-8.8,3.9c-1.6,0-3.2-0.3-4.7-1     c-4.6-2-7.5-6.7-7.2-11.7c0.7-9.7,1.9-19.9,3.9-30.9c-19.8,12.6-38,21.9-55.9,28.8c-1.4,0.5-2.8,0.8-4.2,0.8     c-3.1,0-6.1-1.2-8.4-3.5c-3.3-3.3-4.4-8.3-2.7-12.6c6.1-15.9,14.1-31.9,24.7-49.3c-18.5,4.6-35.1,7.6-50.7,9.2     c-0.4,0-0.8,0.1-1.2,0.1c-4.7,0-9-2.8-10.9-7.1c-2.1-4.7-0.8-10.3,3.1-13.7c15.1-13.2,31.3-24.6,46.5-34.3     c-22.4-5.1-41.5-11.2-58.8-18.9c-4.3-1.9-7-6.2-7-10.8s2.8-8.3,7-10.2c0.2-0.1,0.4,0.3,0.6,0.3H122c0,1-0.1,2.7-0.1,4.4     c0,124.6,101.4,225.7,226,225.7s226-100.9,226-225.5c0-1.7,0-3.5-0.1-4.5h-38.5C540,220.9,541.5,225.4,541.2,229.3z" fill="#ED1C24"/><path d="M584.4,222.2c0,130.4-106.1,236.3-236.6,236.3c-130.4,0-236.6-105.7-236.6-236.1c0-1.7,0-3.5,0.1-4.5     h-10.6c0,1-0.1,2.7-0.1,4.4c0,136.5,110.7,246.9,247.2,246.9S595,358.9,595,222.4c0-1.7,0-3.5-0.1-4.5h-10.6     C584.4,218.9,584.4,220.6,584.4,222.2z" fill="#8CC63F"/><path d="M347.9,458.2c130.4,0,236.6-105.5,236.6-235.9c0-1.7,0-3.4-0.1-4.4h-10.6c0,1,0.1,2.7,0.1,4.4     c0,124.6-101.4,225.7-226,225.7s-226-100.9-226-225.5c0-1.7,0-3.5,0.1-4.5h-10.6c0,1-0.1,2.7-0.1,4.4     C111.3,352.7,217.4,458.2,347.9,458.2z" fill="#D9E021"/><path d="M535.2,216.9h-71.5c3.9,1,6.7,3.8,6.7,7.4c0,4.3-4.2,7.7-9.4,7.7s-21.6-3.4-21.6-7.7     c0-3.5,11.1-6.4,17.9-7.4h-20.9h-10.4H269.6h-24.4v14.7c-2,0.2-2.8,0.3-3.7,0.3c-5.2,0-9.4-3.4-9.4-7.7c0-3.5,2.8-6.4,6.7-7.4     h-76.6c-0.2,0-0.4,0.1-0.6,0.2c-4.3,1.9-7,6.1-7,10.8s2.8,8.9,7,10.8c17.2,7.7,36.3,13.9,58.8,18.9     c-15.2,9.7-31.5,21.1-46.5,34.3c-3.9,3.4-5.1,8.9-3.1,13.7c1.9,4.4,6.2,7.1,10.9,7.1c0.4,0,0.8,0,1.2-0.1     c15.6-1.6,32.2-4.6,50.7-9.2c-10.6,17.4-18.6,33.5-24.7,49.3c-1.7,4.4-0.6,9.3,2.7,12.6c2.3,2.3,5.3,3.5,8.4,3.5     c1.4,0,2.9-0.3,4.2-0.8c17.9-6.9,36.1-16.2,55.9-28.8c-2,11-3.3,21.2-3.9,30.9c-0.3,5,2.5,9.7,7.2,11.7c1.5,0.6,3.1,1,4.7,1     c3.3,0,6.5-1.4,8.8-3.9c8.7-9.5,17.1-20.3,25.8-32.9c4.5,16.1,9.7,30.1,15.9,42.9c2,4.1,6.1,6.7,10.7,6.7s8.7-2.6,10.7-6.7     c4.9-10.2,9.2-21.1,13-33.3c9,15.8,19.9,33.4,32.6,49.9c2.3,3,5.8,4.6,9.4,4.6c1.4,0,2.9-0.3,4.3-0.8c4.9-1.9,8-6.8,7.6-12     c-1.5-18.1-4.4-36.9-9.2-58.6c20.1,12.9,38.5,22.4,56.6,29.3c1.4,0.5,2.8,0.8,4.3,0.8c3.1,0,6.1-1.2,8.4-3.5     c3.3-3.3,4.4-8.3,2.7-12.6c-7.8-20.2-18.7-40.9-33.9-63.6c10.4,1.2,20,1.8,29.2,1.8c4.9,0,9.4-3.1,11.1-7.7     c1.7-4.6,0.5-9.8-3.2-13.1c-4.8-4.2-9.9-8.4-15.6-12.5c8.5-1.9,16.6-4,24.4-6.3c0.7-0.2,1.8-0.5,3.2-0.9     c24.8-6.7,35.8-10.7,36.6-21.6C541.5,224.9,540,219.9,535.2,216.9z M351.2,343.3c-4.3,0-7.8-4.2-7.8-9.4c0-5.2,3.5-21.6,7.8-21.6     s7.8,16.4,7.8,21.6C359,339.1,355.5,343.3,351.2,343.3z M461.7,322.7c3.7,3.7,4.2,9.1,1.1,12.1c-3,3-8.5,2.5-12.1-1.1     c-3.7-3.7-12.8-17.7-9.7-20.7C443.9,310,458,319.1,461.7,322.7z M461.2,270c-1.7,4-7,5.6-11.8,3.6c-2.9-1.2-9.2-5.1-13.2-8.9     v-8.4c6-0.6,15.7,1.4,19.2,2.9C460.2,261.2,462.9,266,461.2,270z" fill="#ED1C24"/><path d="M439.5,224.2c0,4.3,16.4,7.7,21.6,7.7s9.4-3.4,9.4-7.7c0-3.5-2.8-6.4-6.7-7.4h-6.3     C450.6,217.9,439.5,220.7,439.5,224.2z" fill="#1D1D1B"/><path d="M457.4,216.9h6.3c-0.8,0-1.7-0.3-2.6-0.3C460.1,216.5,458.9,216.9,457.4,216.9z" fill="#85B227"/><path d="M440.9,313c-3,3,6.1,17.1,9.7,20.7c3.7,3.7,9.1,4.2,12.1,1.1c3-3,2.5-8.5-1.1-12.1     C458,319.1,443.9,310,440.9,313z" fill="#1D1D1B"/><path d="M351.2,343.3c4.3,0,7.8-4.2,7.8-9.4c0-5.2-3.5-21.6-7.8-21.6s-7.8,16.4-7.8,21.6     C343.4,339.1,346.9,343.3,351.2,343.3z" fill="#1D1D1B"/><path d="M421.2,406.3c4.3,0,7.8-4.2,7.8-9.4c0-5.2-3.5-21.6-7.8-21.6s-7.8,16.4-7.8,21.6     C413.4,402.1,416.9,406.3,421.2,406.3z" fill="#1D1D1B"/><path d="M449.6,273.6c4.8,2,10,0.4,11.6-3.6s-0.9-8.8-5.6-10.8s-21.2-5.1-22.9-1.1S444.8,271.6,449.6,273.6z" fill="#1D1D1B"/><path d="M238.7,216.9h6.3c-1.5,0-2.7-0.3-3.7-0.3C240.4,216.5,239.6,216.9,238.7,216.9z" fill="#1D1D1B"/><path d="M279,307.3c3.7-3.7,12.8-17.7,9.7-20.7s-17.1,6.1-20.7,9.7c-3.7,3.7-4.2,9.1-1.1,12.1     C269.9,311.4,275.4,310.9,279,307.3z" fill="#1D1D1B"/><path d="M290,395.1c2.2-4.7,6-21,2.1-22.8s-14,11.5-16.2,16.2c-2.2,4.7-0.8,9.9,3.1,11.8     C282.9,402.1,287.8,399.8,290,395.1z" fill="#1D1D1B"/><path d="M180,307.3c3.7-3.7,12.8-17.7,9.7-20.7s-17.1,6.1-20.7,9.7c-3.7,3.7-4.2,9.1-1.1,12.1     C170.9,311.4,176.4,310.9,180,307.3z" fill="#1D1D1B"/><path d="M232,224.2c0,4.3,4.2,7.7,9.4,7.7s21.6-3.4,21.6-7.7c0-3.5-11.1-6.4-17.9-7.4h-6.3     C234.8,217.9,232,220.7,232,224.2z" fill="#1D1D1B"/></g></g></svg>